<svg xmlns="http://www.w3.org/2000/svg" viewBox="0 0 1600 900" role="img" aria-labelledby="title desc">
  <title id="title">Chatbot workflow dashboard</title>
  <desc id="desc">Dark workspace illustration with chatbot flow nodes and analytics cards.</desc>
  <defs>
    <linearGradient id="bg" x1="0" y1="0" x2="1" y2="1">
      <stop offset="0" stop-color="#111411"/>
      <stop offset="0.45" stop-color="#20251f"/>
      <stop offset="1" stop-color="#0b0d0c"/>
    </linearGradient>
    <linearGradient id="panel" x1="0" y1="0" x2="1" y2="1">
      <stop offset="0" stop-color="#30362f"/>
      <stop offset="1" stop-color="#1a1f1b"/>
    </linearGradient>
    <filter id="shadow" x="-20%" y="-20%" width="140%" height="140%">
      <feDropShadow dx="0" dy="22" stdDeviation="28" flood-color="#000" flood-opacity="0.45"/>
    </filter>
  </defs>
  <rect width="1600" height="900" fill="url(#bg)"/>
  <circle cx="1250" cy="150" r="270" fill="#5ac08c" opacity="0.08"/>
  <circle cx="1180" cy="710" r="320" fill="#3e7bd8" opacity="0.08"/>
  <g filter="url(#shadow)">
    <rect x="590" y="130" width="790" height="570" rx="30" fill="url(#panel)" stroke="#ffffff" stroke-opacity="0.12"/>
    <rect x="630" y="175" width="230" height="92" rx="18" fill="#111411" stroke="#ffffff" stroke-opacity="0.1"/>
    <rect x="900" y="175" width="430" height="92" rx="18" fill="#111411" stroke="#ffffff" stroke-opacity="0.1"/>
    <rect x="630" y="602" width="700" height="52" rx="16" fill="#111411" stroke="#ffffff" stroke-opacity="0.1"/>
    <rect x="675" y="214" width="82" height="10" rx="5" fill="#d9f2e7" opacity="0.9"/>
    <rect x="675" y="236" width="142" height="9" rx="4.5" fill="#b5b1aa" opacity="0.45"/>
    <rect x="938" y="213" width="210" height="10" rx="5" fill="#d9f2e7" opacity="0.8"/>
    <rect x="938" y="236" width="320" height="9" rx="4.5" fill="#b5b1aa" opacity="0.42"/>
    <rect x="666" y="624" width="286" height="9" rx="4.5" fill="#b5b1aa" opacity="0.42"/>
    <rect x="990" y="620" width="120" height="16" rx="8" fill="#5ac08c" opacity="0.9"/>
    <rect x="1130" y="620" width="154" height="16" rx="8" fill="#3e7bd8" opacity="0.8"/>
  </g>
  <g stroke="#5ac08c" stroke-width="4" stroke-linecap="round" stroke-opacity="0.72" fill="none">
    <path d="M760 395 C820 348, 875 350, 930 390"/>
    <path d="M1015 392 C1075 340, 1144 350, 1195 405"/>
    <path d="M930 458 C887 507, 842 514, 795 485"/>
    <path d="M1012 458 C1053 514, 1122 520, 1170 480"/>
  </g>
  <g filter="url(#shadow)">
    <rect x="690" y="342" width="144" height="78" rx="18" fill="#d9f2e7"/>
    <rect x="906" y="356" width="136" height="72" rx="18" fill="#e2e9ff"/>
    <rect x="1160" y="358" width="158" height="82" rx="18" fill="#fff0d6"/>
    <rect x="724" y="472" width="154" height="82" rx="18" fill="#242924" stroke="#ffffff" stroke-opacity="0.16"/>
    <rect x="952" y="474" width="172" height="82" rx="18" fill="#242924" stroke="#ffffff" stroke-opacity="0.16"/>
    <circle cx="760" cy="380" r="14" fill="#194f37"/>
    <circle cx="974" cy="392" r="14" fill="#2d4187"/>
    <circle cx="1238" cy="399" r="14" fill="#6f4d1f"/>
    <rect x="720" y="516" width="90" height="10" rx="5" fill="#d9f2e7" opacity="0.72"/>
    <rect x="975" y="518" width="108" height="10" rx="5" fill="#e2e9ff" opacity="0.72"/>
  </g>
  <g filter="url(#shadow)">
    <rect x="250" y="470" width="500" height="210" rx="26" fill="#171b18" stroke="#ffffff" stroke-opacity="0.1"/>
    <rect x="292" y="516" width="132" height="14" rx="7" fill="#5ac08c"/>
    <rect x="292" y="556" width="260" height="12" rx="6" fill="#f3f0ea" opacity="0.78"/>
    <rect x="292" y="590" width="372" height="10" rx="5" fill="#b5b1aa" opacity="0.44"/>
    <rect x="292" y="622" width="300" height="10" rx="5" fill="#b5b1aa" opacity="0.36"/>
  </g>
</svg>
